<svg id="Слой_1" data-name="Слой 1" xmlns="http://www.w3.org/2000/svg" viewBox="0 0 27.2 34">
  <defs>
    <style>
      .cls-1 {
        fill: #fff;
      }
    </style>
  </defs>
  <title>basket</title>
  <path class="cls-1" d="M25.84,10.88H21.76V8.16a8.16,8.16,0,0,0-16.32,0v2.72H1.36A1.36,1.36,0,0,0,0,12.24v19A2.72,2.72,0,0,0,2.72,34H24.48a2.72,2.72,0,0,0,2.72-2.72v-19A1.36,1.36,0,0,0,25.84,10.88ZM8.16,8.16A5.44,5.44,0,0,1,19,8.16v2.72H8.16Zm15,23.12h-19a1.36,1.36,0,0,1-1.36-1.36V28.56H24.48v1.36A1.36,1.36,0,0,1,23.12,31.28Zm1.36-5.44H2.72V13.6H5.44V15a1.36,1.36,0,0,0,2.72,0V13.6H19V15a1.36,1.36,0,0,0,2.72,0V13.6h2.72Z"/>
</svg>
